HIERARCHY
ROOT Hips
{
	OFFSET 0.00000 0.00000 0.00000
	CHANNELS 6 Xposition Yposition Zposition Zrotation Yrotation Xrotation 
	JOINT LHipJoint
	{
		OFFSET 0 0 0
		CHANNELS 3 Zrotation Yrotation Xrotation
		JOINT LeftUpLeg
		{
			OFFSET 1.37324 -1.83837 0.85674
			CHANNELS 3 Zrotation Yrotation Xrotation
			JOINT LeftLeg
			{
				OFFSET 2.53826 -6.97383 0.00000
				CHANNELS 3 Zrotation Yrotation Xrotation
				JOINT LeftFoot
				{
					OFFSET 2.65296 -7.28895 0.00000
					CHANNELS 3 Zrotation Yrotation Xrotation
					JOINT LeftToeBase
					{
						OFFSET 0.22100 -0.60718 2.29776
						CHANNELS 3 Zrotation Yrotation Xrotation
						End Site
						{
							OFFSET 0.00000 -0.00000 1.19228
						}
					}
				}
			}
		}
	}
	JOINT RHipJoint
	{
		OFFSET 0 0 0
		CHANNELS 3 Zrotation Yrotation Xrotation
		JOINT RightUpLeg
		{
			OFFSET -1.30156 -1.83836 0.85673
			CHANNELS 3 Zrotation Yrotation Xrotation
			JOINT RightLeg
			{
				OFFSET -2.63627 -7.24310 0.00000
				CHANNELS 3 Zrotation Yrotation Xrotation
				JOINT RightFoot
				{
					OFFSET -2.62024 -7.19904 0.00000
					CHANNELS 3 Zrotation Yrotation Xrotation
					JOINT RightToeBase
					{
						OFFSET -0.20765 -0.57052 2.42402
						CHANNELS 3 Zrotation Yrotation Xrotation
						End Site
						{
							OFFSET -0.00000 -0.00000 1.24980
						}
					}
				}
			}
		}
	}
	JOINT LowerBack
	{
		OFFSET 0 0 0
		CHANNELS 3 Zrotation Yrotation Xrotation
		JOINT Spine
		{
			OFFSET 0.05739 2.14162 -0.22815
			CHANNELS 3 Zrotation Yrotation Xrotation
			JOINT Spine1
			{
				OFFSET 0.02798 2.14167 0.08145
				CHANNELS 3 Zrotation Yrotation Xrotation
				JOINT Neck
				{
					OFFSET 0 0 0
					CHANNELS 3 Zrotation Yrotation Xrotation
					JOINT Neck1
					{
						OFFSET -0.07019 1.58903 0.32980
						CHANNELS 3 Zrotation Yrotation Xrotation
						JOINT Head
						{
							OFFSET -0.03205 1.65283 -0.21190
							CHANNELS 3 Zrotation Yrotation Xrotation
							End Site
							{
								OFFSET -0.00726 1.66788 -0.10849
							}
						}
					}
				}
				JOINT LeftShoulder
				{
					OFFSET 0 0 0
					CHANNELS 3 Zrotation Yrotation Xrotation
					JOINT LeftArm
					{
						OFFSET 3.92858 0.97533 -0.07938
						CHANNELS 3 Zrotation Yrotation Xrotation
						JOINT LeftForeArm
						{
							OFFSET 5.58345 -0.00000 -0.00000
							CHANNELS 3 Zrotation Yrotation Xrotation
							JOINT LeftHand
							{
								OFFSET 3.71087 -0.00000 0.00000
								CHANNELS 3 Zrotation Yrotation Xrotation
								JOINT LeftFingerBase
								{
									OFFSET 0 0 0
									CHANNELS 3 Zrotation Yrotation Xrotation
									JOINT LeftHandIndex1
									{
										OFFSET 0.56232 -0.00000 -0.00000
										CHANNELS 3 Zrotation Yrotation Xrotation
										End Site
										{
											OFFSET 0.45336 -0.00000 -0.00000
										}
									}
								}
								JOINT LThumb
								{
									OFFSET 0 0 0
									CHANNELS 3 Zrotation Yrotation Xrotation
									End Site
									{
										OFFSET 0.46028 -0.00000 0.46028
									}
								}
							}
						}
					}
				}
				JOINT RightShoulder
				{
					OFFSET 0 0 0
					CHANNELS 3 Zrotation Yrotation Xrotation
					JOINT RightArm
					{
						OFFSET -3.89897 1.08887 -0.22589
						CHANNELS 3 Zrotation Yrotation Xrotation
						JOINT RightForeArm
						{
							OFFSET -5.20357 -0.00000 -0.00000
							CHANNELS 3 Zrotation Yrotation Xrotation
							JOINT RightHand
							{
								OFFSET -3.64937 -0.00000 0.00000
								CHANNELS 3 Zrotation Yrotation Xrotation
								JOINT RightFingerBase
								{
									OFFSET 0 0 0
									CHANNELS 3 Zrotation Yrotation Xrotation
									JOINT RightHandIndex1
									{
										OFFSET -0.61800 -0.00000 -0.00000
										CHANNELS 3 Zrotation Yrotation Xrotation
										End Site
										{
											OFFSET -0.49824 -0.00000 -0.00000
										}
									}
								}
								JOINT RThumb
								{
									OFFSET 0 0 0
									CHANNELS 3 Zrotation Yrotation Xrotation
									End Site
									{
										OFFSET -0.50585 -0.00000 0.50585
									}
								}
							}
						}
					}
				}
			}
		}
	}
}
MOTION
Frames: 5
Frame Time: .0083333
-0.7233 16.3228 -10.4683 3.5583 -2.4128 4.8969 0.0000 0.0000 0.0000 -16.3209 -9.1426 -47.9316 20.5768 19.9920 91.6867 0.3052 -6.6632 -10.2069 0.1334 -2.3538 -6.4844 0.0000 0.0000 0.0000 11.3983 6.6351 -57.3359 -6.8100 -15.1698 48.1522 0.0033 -1.6118 -1.9221 -1.1009 6.6670 -18.7326 1.4475 0.0834 36.3770 1.5698 0.7367 10.5783 0.6303 0.3221 -6.3742 -2.7940 -0.0205 -16.7080 -6.3782 1.3082 7.0969 -1.4366 0.1139 4.8803 0.0000 0.0000 0.0000 -70.9434 -6.9044 19.3744 139.6732 -48.2623 -101.3173 -0.0000 0.0000 -17.4571 26.1655 -1.8388 -0.9032 -7.1250 0.0000 -0.0000 -0.3201 27.9311 0.1329 0.0000 0.0000 0.0000 59.6739 15.1739 28.1264 -60.3031 56.3902 -34.5934 0.0000 -0.0000 -5.1369 -37.4944 -2.5401 1.9473 7.1250 -0.0000 -0.0000 -8.8556 -33.0871 -2.6119
-0.7173 16.2086 -9.9669 3.6336 -2.5528 4.9418 0.0000 0.0000 0.0000 -15.8347 -9.2142 -50.9665 20.3772 19.9966 91.1028 0.4148 -6.1914 -11.6073 0.1105 -2.1429 -5.9006 0.0000 0.0000 0.0000 11.2051 7.0591 -57.6511 -7.2714 -15.5562 49.8935 0.0098 -1.8165 -1.1371 -0.8017 5.7146 -15.9586 1.4275 0.2558 37.2201 1.6415 0.9491 11.1769 0.6398 0.4212 -6.0064 -2.9668 -0.2892 -15.3009 -6.4661 0.8582 6.2126 -1.4636 -0.0622 4.3702 0.0000 -0.0000 0.0000 -70.6089 -5.7245 17.0581 138.3981 -48.9908 -100.3604 -0.0000 0.0000 -17.9344 26.0590 -1.3830 -0.6762 -7.1250 0.0000 -0.0000 -0.3994 28.4403 0.1610 0.0000 -0.0000 0.0000 57.6558 17.2227 27.0436 -60.1230 56.3426 -34.4434 0.0000 -0.0000 -5.0685 -37.6781 -2.0684 1.5966 7.1250 -0.0000 -0.0000 -8.9565 -32.5034 -2.7701
-0.7154 16.0689 -9.4658 3.6749 -2.5650 5.0179 0.0000 0.0000 0.0000 -15.2808 -9.4595 -54.0671 20.0189 20.0000 90.0553 0.5175 -5.7929 -12.8482 0.0793 -1.8166 -4.9990 0.0000 0.0000 0.0000 11.2337 7.2619 -58.1588 -7.9356 -16.0717 52.3303 0.0046 -1.2084 -0.3693 -0.1244 2.2734 -6.2618 1.4054 0.3360 38.0275 1.6722 1.0460 11.6563 0.6485 0.4664 -5.7483 -3.0002 -0.5296 -13.4572 -6.5813 0.3860 5.2556 -1.5138 -0.2363 3.7701 -0.0000 -0.0000 0.0000 -70.2669 -4.0755 14.8169 136.9167 -49.7942 -99.2356 -0.0000 0.0000 -18.1327 26.1793 -1.0897 -0.5356 -7.1250 0.0000 -0.0000 -0.3045 28.7655 0.1204 -0.0000 -0.0000 0.0000 55.4376 19.2591 26.1022 -59.8692 56.2750 -34.2323 0.0000 -0.0000 -5.3598 -37.6658 -2.1305 1.6438 7.1250 -0.0000 -0.0000 -8.9529 -32.5807 -2.7521
-0.7089 15.9187 -8.9572 3.4182 -2.8555 4.9496 0.0000 0.0000 0.0000 -14.4580 -9.3511 -56.9972 19.4927 19.9938 88.5166 0.6128 -5.3953 -13.9426 0.0536 -1.4934 -4.1076 0.0000 0.0000 0.0000 11.8480 7.4667 -58.4383 -8.8074 -16.6822 55.4216 0.0001 0.6202 0.8621 -0.0811 -1.8367 5.0546 1.6402 0.4612 38.9520 1.6838 1.2772 12.3634 0.4556 0.5802 -5.2617 -2.9915 -0.8526 -12.5716 -6.5419 -0.1518 4.3388 -1.6703 -0.4464 3.6825 -0.0000 0.0000 0.0000 -69.9804 -2.7550 12.6669 135.0574 -50.7403 -97.8057 -0.0000 0.0000 -18.1444 26.3152 -0.9422 -0.4660 -7.1250 0.0000 -0.0000 -0.1979 28.9286 0.0775 -0.0000 0.0000 0.0000 53.1983 21.5278 24.7459 -59.6937 56.2278 -34.0864 0.0000 -0.0000 -5.7230 -37.6459 -2.4798 1.9116 7.1250 -0.0000 -0.0000 -8.9724 -33.0158 -2.6628
-0.6950 15.7498 -8.4483 3.1351 -3.2569 4.9183 0.0000 0.0000 0.0000 -13.6237 -9.2499 -59.8720 18.7953 19.9652 86.4756 0.7088 -5.0463 -15.0015 0.0453 -1.3734 -3.7769 0.0000 0.0000 0.0000 12.4220 7.7701 -58.6170 -9.8901 -17.3476 59.1203 -0.0301 0.0988 -3.2419 -0.2370 -3.1333 8.6500 1.8959 0.5473 39.9330 1.6127 1.4630 12.9824 0.1815 0.6763 -4.8732 -3.1254 -1.0959 -11.4147 -6.4723 -0.5859 3.5008 -1.6206 -0.6139 3.1525 0.0000 0.0000 0.0000 -69.7328 -1.1556 10.5906 132.9340 -51.7414 -96.1498 -0.0000 0.0000 -18.1182 27.0830 -0.6027 -0.3082 -7.1250 0.0000 -0.0000 0.4044 29.3027 -0.1547 0.0000 0.0000 0.0000 50.8884 23.6930 23.4166 -59.6840 56.2251 -34.0783 0.0000 -0.0000 -6.4686 -37.4297 -2.8149 2.1526 7.1250 -0.0000 -0.0000 -8.8298 -33.4272 -2.5307
